<?xml version="1.0" ?><svg enable-background="new 0 0 320 320" id="Layer_1" version="1.1" viewBox="0 0 320 320" xml:space="preserve" xmlns="http://www.w3.org/2000/svg" xmlns:xlink="http://www.w3.org/1999/xlink"><g><g><circle cx="160" cy="160" fill="#6989AF" r="98"/></g><g><circle cx="120.8" cy="130.6" fill="#466889" r="19.6"/></g><g><path d="M169.8,248.2c-54.1,0-98-43.9-98-98c0-24.6,9.1-47,24-64.2C75.1,104,62,130.4,62,160c0,54.1,43.9,98,98,98    c29.6,0,56-13.1,74-33.8C216.8,239.1,194.4,248.2,169.8,248.2z" fill="#7E9FBC"/></g><g><path d="M160,260c-55.1,0-100-44.9-100-100c0-55.1,44.8-100,100-100c55.1,0,100,44.8,100,100C260,215.1,215.1,260,160,260z     M160,63.9c-53,0-96.1,43.1-96.1,96.1c0,53,43.1,96.1,96.1,96.1c53,0,96.1-43.1,96.1-96.1C256,107,212.9,63.9,160,63.9z"/></g><g><path d="M120.8,152.1c-11.9,0-21.6-9.7-21.6-21.6s9.7-21.6,21.6-21.6s21.6,9.7,21.6,21.6c0,4.3-1.3,8.4-3.6,12l-3.3-2.2    c1.9-2.9,3-6.3,3-9.8c0-9.7-7.9-17.6-17.6-17.6s-17.6,7.9-17.6,17.6s7.9,17.6,17.6,17.6c2.7,0,5.3-0.7,7.9-1.9l1.8,3.5    C127.3,151.3,124.1,152.1,120.8,152.1z"/></g><g><circle cx="189.4" cy="111" fill="#466889" r="9.8"/></g><g><path d="M189.4,122.7c-6.5,0-11.8-5.3-11.8-11.8s5.3-11.8,11.8-11.8s11.8,5.3,11.8,11.8h-3.9c0-4.3-3.5-7.8-7.8-7.8    c-4.3,0-7.8,3.5-7.8,7.8s3.5,7.8,7.8,7.8V122.7z"/></g><g><path d="M197.7,119.3l-2.8-2.8c3.1-3.1,3.1-8,0-11.1c-3-3.1-8-3.1-11.1,0c-3.1,3.1-3.1,8,0,11.1l-2.8,2.8c-4.6-4.6-4.6-12,0-16.6    c4.6-4.6,12-4.6,16.6,0C202.3,107.2,202.3,114.7,197.7,119.3z"/></g><g><circle cx="189.4" cy="189.4" fill="#466889" r="9.8"/></g><g><path d="M189.4,201.1c-6.5,0-11.8-5.3-11.8-11.8c0-6.5,5.3-11.8,11.8-11.8v3.9c-4.3,0-7.8,3.5-7.8,7.8s3.5,7.8,7.8,7.8    c4.3,0,7.8-3.5,7.8-7.8h3.9C201.1,195.9,195.9,201.1,189.4,201.1z"/></g><g><path d="M189.4,201.1c-3,0-6-1.1-8.3-3.4c-4.6-4.6-4.6-12.1,0-16.6c4.6-4.6,12-4.6,16.6,0l-2.8,2.8c-3.1-3.1-8-3.1-11.1,0    c-3.1,3.1-3.1,8,0,11.1c3,3.1,8,3.1,11.1,0l2.8,2.8C195.4,200,192.4,201.1,189.4,201.1z"/></g><g><circle cx="233.5" cy="155.1" fill="#466889" r="4.9"/></g><g><path d="M233.5,161.9c-3.8,0-6.9-3.1-6.9-6.9h3.9c0,1.6,1.3,2.9,2.9,2.9s2.9-1.3,2.9-2.9c0-1.6-1.3-2.9-2.9-2.9v-3.9    c3.8,0,6.9,3.1,6.9,6.9S237.3,161.9,233.5,161.9z"/></g><g><circle cx="145.3" cy="76.7" fill="#466889" r="4.9"/></g><g><path d="M145.3,83.5c-3.8,0-6.9-3.1-6.9-6.9s3.1-6.9,6.9-6.9c3.8,0,6.9,3.1,6.9,6.9S149.1,83.5,145.3,83.5z M145.3,73.7    c-1.6,0-2.9,1.3-2.9,2.9c0,1.6,1.3,2.9,2.9,2.9c1.6,0,2.9-1.3,2.9-2.9C148.2,75,146.9,73.7,145.3,73.7z"/></g><g><circle cx="145.3" cy="174.7" fill="#466889" r="4.9"/></g><g><path d="M145.3,181.5v-3.9c1.6,0,2.9-1.3,2.9-2.9c0-1.6-1.3-2.9-2.9-2.9c-1.6,0-2.9,1.3-2.9,2.9h-3.9c0-3.8,3.1-6.9,6.9-6.9    c3.8,0,6.9,3.1,6.9,6.9S149.1,181.5,145.3,181.5z"/></g><g><circle cx="96.3" cy="194.3" fill="#466889" r="4.9"/></g><g><path d="M96.3,201.1c-3.8,0-6.9-3.1-6.9-6.9c0-3.8,3.1-6.9,6.9-6.9v3.9c-1.6,0-2.9,1.3-2.9,2.9c0,1.6,1.3,2.9,2.9,2.9    c1.6,0,2.9-1.3,2.9-2.9h3.9C103.1,198.1,100,201.1,96.3,201.1z"/></g><g><circle cx="155.1" cy="223.7" fill="#466889" r="14.7"/></g><g><path d="M155.1,240.4c-9.2,0-16.7-7.5-16.7-16.7c0-9.2,7.5-16.7,16.7-16.7v3.9c-7,0-12.7,5.7-12.7,12.7s5.7,12.7,12.7,12.7    s12.7-5.7,12.7-12.7h3.9C171.7,232.9,164.3,240.4,155.1,240.4z"/></g><g><path d="M155.1,240.4c-1.1,0-2.2-0.1-3.3-0.3c-4.4-0.9-8.1-3.4-10.6-7.1c-5.1-7.6-3-18,4.6-23.1c3.7-2.5,8.1-3.4,12.5-2.5    c4.4,0.9,8.1,3.4,10.6,7.1l-3.3,2.2c-1.9-2.8-4.8-4.8-8.1-5.4c-3.3-0.6-6.7,0-9.6,1.9c-5.8,3.9-7.4,11.8-3.5,17.7    c1.9,2.8,4.8,4.8,8.1,5.4c3.3,0.7,6.7,0,9.6-1.9l2.2,3.3C161.5,239.4,158.4,240.4,155.1,240.4z"/></g></g></svg>